<svg xmlns="http://www.w3.org/2000/svg" xmlns:xlink="http://www.w3.org/1999/xlink" width="500" zoomAndPan="magnify" viewBox="0 0 375 225" height="300" preserveAspectRatio="xMidYMid meet" version="1.0"><defs><clipPath id="116ba16318"><path d="M 91 3.082031 L 175 3.082031 L 175 83 L 91 83 Z M 91 3.082031 " clip-rule="nonzero"/></clipPath><clipPath id="ecce9b94c9"><path d="M 42.835938 18 L 310 18 L 310 222 L 42.835938 222 Z M 42.835938 18 " clip-rule="nonzero"/></clipPath></defs><path fill="#242424" d="M 214.4375 211.007812 L 171.765625 214.378906 C 171.722656 217.859375 94.476562 211.261719 94.476562 211.261719 C 94.476562 211.261719 74.253906 214.585938 67.375 194.613281 C 60.03125 173.300781 68.042969 122.972656 74.84375 114.414062 C 81.640625 105.855469 94.5625 101.964844 104.464844 97.9375 C 108.996094 88.917969 114.871094 84.636719 114.871094 84.636719 L 131.066406 85.097656 L 140.546875 83.578125 C 145.789062 88.152344 149.527344 96.429688 149.527344 96.429688 C 149.527344 96.429688 172.382812 105.742188 176.578125 111.617188 C 183.253906 120.960938 189.160156 147.097656 195.636719 177.945312 C 195.636719 177.945312 213.429688 184.324219 219.472656 184.324219 C 225.511719 184.324219 214.4375 211.007812 214.4375 211.007812 Z M 214.4375 211.007812 L 171.765625 214.378906 C 171.722656 217.859375 94.476562 211.261719 94.476562 211.261719 C 94.476562 211.261719 74.253906 214.585938 67.375 194.613281 C 60.03125 173.300781 68.042969 122.972656 74.84375 114.414062 C 81.640625 105.855469 94.5625 101.964844 104.464844 97.9375 C 108.996094 88.917969 114.871094 84.636719 114.871094 84.636719 L 131.066406 85.097656 L 140.546875 83.578125 C 145.789062 88.152344 149.527344 96.429688 149.527344 96.429688 C 149.527344 96.429688 172.382812 105.742188 176.578125 111.617188 C 183.253906 120.960938 189.160156 147.097656 195.636719 177.945312 C 195.636719 177.945312 213.429688 184.324219 219.472656 184.324219 C 225.511719 184.324219 214.4375 211.007812 214.4375 211.007812 Z M 214.4375 211.007812 " fill-opacity="1" fill-rule="nonzero"/><g clip-path="url(#116ba16318)"><path fill="#ffde59" d="M 168.792969 69.132812 C 166.871094 74.191406 167.1875 77.96875 167.039062 79.457031 C 167.230469 81.160156 162.128906 78.40625 161.492188 72.160156 C 160.203125 78.421875 154.589844 81.339844 152.328125 81.5625 C 150.691406 81.722656 150.183594 79.328125 150.289062 77.367188 C 150.230469 77.351562 147.566406 80.675781 143.382812 82.03125 C 135.304688 84.652344 119.238281 78.777344 119.238281 78.777344 C 117.472656 78.691406 116.0625 75.976562 115.84375 75.398438 C 116.460938 77.25 115.800781 79.421875 115.800781 79.421875 C 109.046875 79.472656 102.527344 71.863281 102.351562 68.191406 C 102.351562 68.191406 100.4375 76.714844 98.527344 74.277344 C 95.886719 68.394531 84.585938 50.667969 96.488281 24.945312 C 106.5625 3.171875 128.488281 3.148438 140.011719 4.449219 C 144.46875 4.953125 161.113281 7.410156 167.910156 20.511719 C 178.621094 41.152344 173.503906 56.730469 168.792969 69.132812 Z M 168.792969 69.132812 C 166.871094 74.191406 167.1875 77.96875 167.039062 79.457031 C 167.230469 81.160156 162.128906 78.40625 161.492188 72.160156 C 160.203125 78.421875 154.589844 81.339844 152.328125 81.5625 C 150.691406 81.722656 150.183594 79.328125 150.289062 77.367188 C 150.230469 77.351562 147.566406 80.675781 143.382812 82.03125 C 135.304688 84.652344 119.238281 78.777344 119.238281 78.777344 C 117.472656 78.691406 116.0625 75.976562 115.84375 75.398438 C 116.460938 77.25 115.800781 79.421875 115.800781 79.421875 C 109.046875 79.472656 102.527344 71.863281 102.351562 68.191406 C 102.351562 68.191406 100.4375 76.714844 98.527344 74.277344 C 95.886719 68.394531 84.585938 50.667969 96.488281 24.945312 C 106.5625 3.171875 128.488281 3.148438 140.011719 4.449219 C 144.46875 4.953125 161.113281 7.410156 167.910156 20.511719 C 178.621094 41.152344 173.503906 56.730469 168.792969 69.132812 Z M 168.792969 69.132812 " fill-opacity="1" fill-rule="nonzero"/></g><g clip-path="url(#ecce9b94c9)"><path fill="#fafafa" d="M 182.421875 193.257812 C 190.125 196.402344 184.867188 199.648438 177.753906 197.808594 C 183.761719 199.9375 181.589844 203.410156 171.78125 201.605469 C 163.042969 199.996094 155.71875 206.644531 145.457031 206.289062 L 145.945312 186.03125 C 145.945312 186.03125 154.835938 183.230469 160.816406 181.917969 C 160.816406 181.917969 166.417969 180.234375 179.046875 184.121094 C 181.914062 185.003906 183.941406 185.660156 184.980469 186.097656 C 188.058594 187.390625 188.019531 190.152344 183.199219 189.644531 C 189.824219 190.519531 188.917969 195.101562 182.421875 193.257812 Z M 307.328125 210.128906 L 45.234375 210.953125 C 44.246094 210.957031 43.433594 211.46875 43.394531 212.121094 L 42.902344 220.542969 C 42.863281 221.234375 43.710938 221.808594 44.761719 221.804688 L 307.597656 220.570312 C 308.625 220.566406 309.453125 220.007812 309.429688 219.332031 L 309.1875 211.316406 C 309.167969 210.65625 308.339844 210.125 307.328125 210.128906 Z M 115.503906 46.9375 C 115.503906 46.9375 113.292969 43.683594 109.175781 45.679688 C 104.019531 48.179688 106.664062 60.863281 114.414062 59.4375 C 114.992188 65.578125 114.871094 84.636719 114.871094 84.636719 C 114.871094 84.636719 126.070312 97.214844 140 103.847656 C 141.929688 97.089844 141.050781 85.761719 140.589844 83.410156 C 140.816406 79.605469 140.65625 78.894531 140.65625 78.894531 C 140.65625 78.894531 152.816406 80.855469 160.992188 67.242188 C 163.632812 62.851562 164.414062 56.816406 165.296875 51.859375 C 166.171875 43.003906 163.175781 28.5 148.636719 18.632812 C 148.238281 22.640625 131.730469 41.457031 115.503906 46.9375 Z M 115.503906 46.9375 " fill-opacity="1" fill-rule="nonzero"/></g><path fill="#ff6347" d="M 240.339844 128.433594 L 329.953125 128.433594 C 331.285156 128.433594 332.183594 129.792969 331.667969 131.015625 L 298.660156 209.015625 C 298.367188 209.703125 297.695312 210.148438 296.949219 210.148438 L 215.609375 210.507812 L 204.367188 210.507812 L 124.222656 210.671875 C 123.195312 210.671875 121.957031 209.671875 121.957031 208.648438 L 121.957031 206.15625 C 121.957031 205.128906 122.789062 204.296875 123.816406 204.296875 L 205.761719 204.296875 C 206.507812 204.296875 207.183594 203.847656 207.476562 203.160156 L 238.628906 129.570312 C 238.917969 128.878906 239.59375 128.433594 240.339844 128.433594 Z M 240.339844 128.433594 L 329.953125 128.433594 C 331.285156 128.433594 332.183594 129.792969 331.667969 131.015625 L 298.660156 209.015625 C 298.367188 209.703125 297.695312 210.148438 296.949219 210.148438 L 215.609375 210.507812 L 204.367188 210.507812 L 124.222656 210.671875 C 123.195312 210.671875 121.957031 209.671875 121.957031 208.648438 L 121.957031 206.15625 C 121.957031 205.128906 122.789062 204.296875 123.816406 204.296875 L 205.761719 204.296875 C 206.507812 204.296875 207.183594 203.847656 207.476562 203.160156 L 238.628906 129.570312 C 238.917969 128.878906 239.59375 128.433594 240.339844 128.433594 Z M 240.339844 128.433594 " fill-opacity="1" fill-rule="nonzero"/><path fill="#333333" d="M 135.257812 58.785156 C 135.148438 58.878906 135.089844 59.015625 135.089844 59.160156 C 135.136719 61.734375 138.265625 64.773438 141.792969 65.664062 C 142.492188 65.84375 143.179688 65.929688 143.839844 65.929688 C 146.515625 65.929688 148.816406 64.496094 150.328125 61.816406 C 150.402344 61.679688 150.410156 61.511719 150.34375 61.371094 C 150.273438 61.230469 150.140625 61.128906 149.988281 61.101562 C 149.988281 61.101562 140.617188 59.503906 135.652344 58.675781 C 135.511719 58.652344 135.367188 58.691406 135.257812 58.785156 Z M 149.125 61.933594 C 146.875 65.339844 143.75 65.167969 142.03125 64.730469 C 138.984375 63.957031 136.601562 61.605469 136.136719 59.734375 C 140.347656 60.4375 146.972656 61.566406 149.125 61.933594 Z M 82.273438 116.261719 C 83.425781 116.800781 84.335938 117.792969 85.074219 118.804688 C 86.167969 120.296875 87.023438 121.957031 87.785156 123.632812 C 89.828125 128.140625 91.242188 132.945312 92.503906 137.71875 C 93.964844 143.242188 95.164062 148.832031 96.238281 154.4375 C 97.230469 159.609375 98.105469 164.804688 98.898438 170.007812 C 99.425781 173.492188 99.90625 176.871094 100.328125 180.332031 C 100.355469 180.574219 100.382812 180.8125 100.414062 181.050781 C 100.429688 181.199219 100.5 181.308594 100.59375 181.382812 C 93.667969 181.410156 88.855469 181.488281 88.71875 181.492188 C 88.453125 181.496094 88.238281 181.714844 88.242188 181.980469 C 88.25 182.25 88.46875 182.460938 88.734375 182.457031 C 89.121094 182.449219 127.472656 181.8125 144.546875 183.589844 C 145.433594 188.53125 144.8125 202.785156 144.804688 202.933594 C 144.792969 203.199219 145 203.421875 145.265625 203.433594 C 145.273438 203.4375 145.28125 203.4375 145.289062 203.4375 C 145.542969 203.4375 145.757812 203.234375 145.769531 202.972656 C 145.796875 202.355469 146.433594 187.753906 145.421875 183.046875 C 145.378906 182.84375 145.210938 182.691406 145.003906 182.667969 C 134.144531 181.496094 114.269531 181.339844 101.277344 181.382812 C 101.351562 181.304688 101.394531 181.195312 101.378906 181.050781 C 100.996094 177.816406 100.546875 174.589844 100.070312 171.367188 C 99.734375 169.105469 99.378906 166.847656 99.011719 164.59375 C 99.050781 164.539062 99.085938 164.480469 99.101562 164.410156 C 102.105469 150.386719 99.882812 135.308594 99.863281 135.160156 C 99.820312 134.894531 99.574219 134.714844 99.3125 134.753906 C 99.046875 134.792969 98.867188 135.039062 98.90625 135.304688 C 98.929688 135.445312 100.894531 148.835938 98.582031 162.019531 C 98.246094 160.050781 97.902344 158.085938 97.535156 156.125 C 96.480469 150.441406 95.300781 144.777344 93.878906 139.175781 C 92.617188 134.207031 91.199219 129.238281 89.207031 124.503906 C 88.4375 122.667969 87.582031 120.847656 86.496094 119.171875 C 85.683594 117.917969 84.730469 116.691406 83.484375 115.84375 C 83.253906 115.6875 83.011719 115.546875 82.761719 115.429688 C 82.199219 115.167969 81.710938 116 82.273438 116.261719 Z M 97.082031 177.21875 C 97.246094 177.21875 97.402344 177.136719 97.496094 176.984375 C 97.632812 176.757812 97.558594 176.460938 97.328125 176.324219 C 97.203125 176.246094 94.089844 174.441406 83.652344 173.4375 C 83.386719 173.40625 83.152344 173.605469 83.128906 173.871094 C 83.101562 174.136719 83.296875 174.371094 83.5625 174.398438 C 93.710938 175.375 96.804688 177.132812 96.835938 177.152344 C 96.910156 177.199219 96.996094 177.21875 97.082031 177.21875 Z M 132.355469 117.511719 C 132.4375 117.5625 132.527344 117.585938 132.617188 117.585938 C 132.765625 117.585938 132.914062 117.519531 133.007812 117.386719 C 134.753906 114.96875 138.3125 108.730469 139.757812 106.171875 C 140.738281 110.929688 144.207031 128.96875 145.476562 152.375 C 146.847656 177.648438 147.609375 185.550781 147.617188 185.628906 C 147.644531 185.878906 147.851562 186.066406 148.097656 186.066406 C 148.113281 186.066406 148.128906 186.0625 148.144531 186.0625 C 148.410156 186.035156 148.605469 185.800781 148.578125 185.535156 C 148.570312 185.457031 147.808594 177.566406 146.441406 152.324219 C 145.1875 129.199219 141.789062 111.28125 140.742188 106.179688 C 142.808594 108.089844 147.195312 112.347656 148.675781 115.304688 C 148.769531 115.5 148.980469 115.605469 149.195312 115.566406 C 149.40625 115.523438 149.566406 115.351562 149.585938 115.136719 C 149.636719 114.585938 150.800781 101.671875 149.960938 96.632812 C 149.914062 96.371094 149.664062 96.195312 149.402344 96.238281 C 149.140625 96.28125 148.964844 96.53125 149.007812 96.792969 C 149.660156 100.714844 149.035156 109.914062 148.75 113.539062 C 146.125 109.597656 140.542969 104.6875 140.28125 104.457031 C 140.273438 104.449219 140.257812 104.445312 140.25 104.441406 C 140.21875 104.414062 140.179688 104.398438 140.144531 104.382812 C 140.117188 104.371094 140.097656 104.359375 140.070312 104.355469 C 140.027344 104.34375 139.984375 104.34375 139.941406 104.347656 C 139.917969 104.347656 139.902344 104.339844 139.878906 104.34375 C 139.875 104.34375 139.875 104.347656 139.871094 104.347656 C 139.867188 104.351562 139.859375 104.347656 139.855469 104.347656 C 139.796875 104.363281 139.746094 104.390625 139.699219 104.421875 C 139.691406 104.421875 139.6875 104.425781 139.683594 104.425781 C 139.628906 104.464844 139.582031 104.519531 139.550781 104.574219 C 139.546875 104.578125 139.542969 104.582031 139.542969 104.585938 C 139.492188 104.671875 134.753906 113.160156 132.488281 116.449219 C 118.945312 107.804688 105.515625 97.769531 105.378906 97.667969 C 105.167969 97.511719 104.863281 97.550781 104.703125 97.765625 C 104.542969 97.980469 104.589844 98.28125 104.800781 98.441406 C 104.9375 98.542969 118.652344 108.792969 132.355469 117.511719 Z M 154.9375 42.691406 C 155.105469 42.671875 155.273438 42.667969 155.441406 42.679688 C 155.628906 42.6875 155.664062 42.695312 155.851562 42.734375 C 156.011719 42.765625 156.171875 42.808594 156.328125 42.859375 C 156.511719 42.921875 156.601562 42.957031 156.742188 43.023438 C 156.886719 43.089844 157.027344 43.164062 157.160156 43.246094 C 157.230469 43.285156 157.296875 43.328125 157.359375 43.375 C 157.394531 43.398438 157.425781 43.417969 157.457031 43.441406 C 157.460938 43.445312 157.464844 43.449219 157.46875 43.453125 C 157.578125 43.539062 157.679688 43.628906 157.773438 43.734375 C 157.789062 43.75 157.808594 43.773438 157.824219 43.789062 C 157.832031 43.796875 157.828125 43.792969 157.832031 43.796875 C 157.867188 43.847656 157.902344 43.898438 157.933594 43.953125 C 158.0625 44.179688 158.371094 44.257812 158.59375 44.125 C 158.820312 43.992188 158.894531 43.695312 158.765625 43.464844 C 158.4375 42.886719 157.820312 42.46875 157.230469 42.1875 C 156.523438 41.855469 155.722656 41.644531 154.9375 41.726562 C 154.679688 41.753906 154.457031 41.929688 154.457031 42.207031 C 154.457031 42.449219 154.675781 42.71875 154.9375 42.691406 Z M 154.566406 54.457031 C 155.503906 54.546875 156.375 53.460938 156.515625 52.023438 C 156.65625 50.589844 156.015625 49.351562 155.082031 49.257812 C 154.148438 49.164062 153.277344 50.253906 153.132812 51.691406 C 152.992188 53.125 153.632812 54.363281 154.566406 54.457031 Z M 135.273438 41.289062 C 137.242188 40.578125 139.484375 40.65625 141.425781 41.425781 C 141.667969 41.523438 141.953125 41.320312 142.015625 41.089844 C 142.097656 40.816406 141.921875 40.59375 141.679688 40.496094 C 139.601562 39.667969 137.125 39.597656 135.015625 40.355469 C 134.4375 40.566406 134.6875 41.496094 135.273438 41.289062 Z M 136.890625 52.710938 C 137.824219 52.800781 138.699219 51.714844 138.839844 50.277344 C 138.980469 48.84375 138.339844 47.601562 137.40625 47.511719 C 136.472656 47.417969 135.597656 48.507812 135.457031 49.941406 C 135.316406 51.378906 135.957031 52.617188 136.890625 52.710938 Z M 147.605469 54.570312 C 147.640625 54.570312 147.675781 54.566406 147.710938 54.558594 C 147.96875 54.5 148.136719 54.242188 148.078125 53.984375 C 146.820312 48.28125 149.539062 42.746094 149.566406 42.691406 C 149.683594 42.453125 149.585938 42.160156 149.347656 42.042969 C 149.109375 41.925781 148.820312 42.019531 148.703125 42.257812 C 148.582031 42.496094 145.804688 48.144531 147.136719 54.191406 C 147.183594 54.414062 147.382812 54.570312 147.605469 54.570312 Z M 113.320312 54.183594 C 113.726562 54.070312 114.546875 54.320312 115.546875 55.402344 C 115.695312 55.566406 115.9375 55.605469 116.132812 55.5 C 116.328125 55.390625 116.425781 55.164062 116.367188 54.949219 C 114.71875 48.949219 110.21875 48.21875 110.027344 48.1875 C 109.765625 48.148438 109.519531 48.332031 109.480469 48.59375 C 109.441406 48.855469 109.621094 49.101562 109.882812 49.144531 C 110.03125 49.167969 113.148438 49.699219 114.867188 53.597656 C 113.992188 53.097656 113.351562 53.171875 113.058594 53.253906 C 112.585938 53.390625 112.25 53.742188 112.160156 54.199219 C 112.046875 54.792969 112.371094 55.453125 113.027344 55.957031 C 113.113281 56.027344 113.21875 56.058594 113.320312 56.058594 C 113.464844 56.058594 113.609375 55.996094 113.703125 55.871094 C 113.867188 55.660156 113.828125 55.355469 113.617188 55.195312 C 113.1875 54.867188 113.074219 54.550781 113.109375 54.382812 C 113.128906 54.285156 113.199219 54.21875 113.320312 54.183594 Z M 107.382812 45.101562 C 107.429688 45.101562 107.472656 45.09375 107.519531 45.082031 C 107.773438 45.003906 107.921875 44.738281 107.847656 44.480469 C 107.804688 44.332031 103.609375 29.378906 115.949219 17.691406 C 116.144531 17.507812 116.152344 17.203125 115.96875 17.007812 C 115.785156 16.816406 115.480469 16.808594 115.289062 16.988281 C 102.523438 29.078125 106.875 44.597656 106.921875 44.753906 C 106.980469 44.964844 107.175781 45.101562 107.382812 45.101562 Z M 113.980469 43.507812 C 114.066406 43.675781 114.234375 43.769531 114.410156 43.769531 C 114.484375 43.769531 114.558594 43.753906 114.628906 43.714844 C 120.207031 40.851562 126.011719 29.96875 126.253906 29.503906 C 126.378906 29.269531 126.289062 28.976562 126.054688 28.851562 C 125.816406 28.726562 125.527344 28.820312 125.402344 29.054688 C 125.34375 29.164062 119.496094 40.132812 114.1875 42.859375 C 113.953125 42.980469 113.859375 43.269531 113.980469 43.507812 Z M 165.5 50.222656 C 165.398438 50.472656 165.519531 50.753906 165.765625 50.851562 C 165.824219 50.875 165.886719 50.886719 165.945312 50.886719 C 166.136719 50.886719 166.316406 50.773438 166.394531 50.585938 C 166.46875 50.394531 173.914062 31.417969 162.066406 18.667969 C 161.886719 18.472656 161.578125 18.460938 161.382812 18.640625 C 161.1875 18.824219 161.179688 19.128906 161.359375 19.324219 C 172.785156 31.621094 165.574219 50.039062 165.5 50.222656 Z M 121.125 69.269531 C 120.945312 69.074219 120.636719 69.058594 120.441406 69.238281 C 120.246094 69.417969 120.230469 69.722656 120.410156 69.921875 C 129.128906 79.476562 139.28125 79.769531 140.472656 79.769531 C 140.542969 79.769531 140.582031 79.769531 140.589844 79.769531 C 140.855469 79.761719 141.0625 79.535156 141.054688 79.269531 C 141.042969 79.003906 140.796875 78.789062 140.554688 78.804688 C 140.453125 78.816406 130.042969 79.042969 121.125 69.269531 Z M 181.078125 214.886719 C 181.808594 214.890625 182.535156 214.898438 183.265625 214.902344 C 183.886719 214.90625 183.886719 213.941406 183.265625 213.9375 C 176.050781 213.878906 168.835938 213.867188 161.625 213.863281 C 152.257812 213.855469 142.894531 213.867188 133.527344 213.890625 C 123.316406 213.914062 113.101562 213.949219 102.886719 213.996094 C 93.058594 214.039062 83.230469 214.089844 73.402344 214.152344 C 65.199219 214.203125 56.992188 214.261719 48.789062 214.332031 C 47.957031 214.339844 47.121094 214.347656 46.289062 214.355469 C 45.667969 214.359375 45.667969 215.328125 46.289062 215.320312 C 54.203125 215.246094 62.117188 215.191406 70.03125 215.136719 C 79.753906 215.074219 89.480469 215.023438 99.207031 214.976562 C 109.441406 214.929688 119.675781 214.890625 129.90625 214.863281 C 139.417969 214.839844 148.929688 214.824219 158.4375 214.824219 C 165.984375 214.828125 173.53125 214.835938 181.078125 214.886719 Z M 306.042969 217 C 298.261719 217.101562 290.476562 217.160156 282.695312 217.214844 C 272.003906 217.289062 261.3125 217.34375 250.621094 217.390625 C 238.710938 217.441406 226.804688 217.480469 214.898438 217.511719 C 203.5 217.539062 192.101562 217.554688 180.703125 217.554688 C 171.457031 217.554688 162.210938 217.542969 152.964844 217.5 C 152.046875 217.496094 151.128906 217.492188 150.210938 217.488281 C 149.589844 217.484375 149.589844 218.449219 150.210938 218.453125 C 159.101562 218.503906 167.992188 218.515625 176.882812 218.519531 C 188.144531 218.523438 199.40625 218.507812 210.667969 218.484375 C 222.605469 218.460938 234.542969 218.421875 246.484375 218.371094 C 257.378906 218.328125 268.273438 218.273438 279.167969 218.203125 C 287.375 218.148438 295.582031 218.089844 303.789062 217.992188 C 304.539062 217.984375 305.292969 217.976562 306.042969 217.964844 C 306.664062 217.957031 306.664062 216.992188 306.042969 217 Z M 233.085938 214 C 239.058594 213.972656 245.03125 213.949219 251.003906 213.914062 C 253.210938 213.902344 255.421875 213.890625 257.628906 213.859375 C 258.25 213.851562 258.253906 212.882812 257.628906 212.894531 C 252.9375 212.964844 248.242188 212.96875 243.550781 212.988281 C 237.578125 213.015625 231.605469 213.035156 225.632812 213.070312 C 223.425781 213.082031 221.214844 213.09375 219.007812 213.128906 C 218.386719 213.136719 218.382812 214.101562 219.007812 214.09375 C 223.699219 214.023438 228.394531 214.019531 233.085938 214 Z M 77.753906 218.007812 C 75.234375 218.007812 72.714844 218.035156 70.195312 218.050781 C 66.800781 218.070312 63.40625 218.09375 60.011719 218.117188 C 58.875 218.121094 57.742188 218.128906 56.609375 218.128906 C 55.988281 218.128906 55.988281 219.09375 56.609375 219.09375 C 59.128906 219.09375 61.648438 219.070312 64.164062 219.054688 C 67.5625 219.03125 70.957031 219.007812 74.351562 218.988281 C 75.484375 218.984375 76.617188 218.972656 77.753906 218.972656 C 78.375 218.972656 78.375 218.007812 77.753906 218.007812 Z M 168.421875 125.121094 C 168.46875 125.132812 168.515625 125.140625 168.5625 125.140625 C 168.769531 125.140625 168.960938 125.003906 169.023438 124.796875 C 171.171875 117.695312 173.675781 111.984375 173.703125 111.929688 C 173.808594 111.683594 173.699219 111.398438 173.453125 111.292969 C 173.210938 111.183594 172.925781 111.296875 172.820312 111.539062 C 172.792969 111.597656 170.265625 117.355469 168.097656 124.519531 C 168.019531 124.773438 168.164062 125.042969 168.421875 125.121094 Z M 168.511719 130.285156 C 168.515625 130.019531 168.300781 129.800781 168.035156 129.796875 C 168.03125 129.796875 168.03125 129.796875 168.027344 129.796875 C 167.765625 129.796875 167.550781 130.011719 167.546875 130.273438 C 167.546875 130.273438 167.378906 145.042969 167.210938 159.140625 C 167.042969 173.097656 167.625 181.628906 167.632812 181.714844 C 167.648438 181.96875 167.863281 182.164062 168.113281 182.164062 C 168.125 182.164062 168.136719 182.160156 168.148438 182.160156 C 168.414062 182.144531 168.613281 181.914062 168.59375 181.644531 C 168.589844 181.5625 168.011719 173.066406 168.175781 159.152344 C 168.34375 145.054688 168.511719 130.285156 168.511719 130.285156 Z M 182.324219 177 C 187.421875 177.125 192.582031 177.375 192.636719 177.378906 C 192.644531 177.378906 192.652344 177.378906 192.660156 177.378906 C 192.914062 177.378906 193.128906 177.179688 193.140625 176.917969 C 193.152344 176.652344 192.949219 176.429688 192.683594 176.414062 C 192.628906 176.414062 187.457031 176.160156 182.347656 176.035156 C 182.34375 176.035156 182.339844 176.035156 182.335938 176.035156 C 182.074219 176.035156 181.859375 176.246094 181.855469 176.507812 C 181.847656 176.773438 182.058594 176.996094 182.324219 177 Z M 191.699219 180.871094 C 191.945312 180.777344 192.070312 180.5 191.976562 180.25 C 191.882812 180 191.601562 179.878906 191.355469 179.96875 C 191.207031 180.027344 187.761719 181.34375 185.234375 182.859375 C 185.007812 182.996094 184.933594 183.292969 185.070312 183.523438 C 185.160156 183.671875 185.320312 183.757812 185.484375 183.757812 C 185.570312 183.757812 185.65625 183.734375 185.730469 183.6875 C 188.183594 182.21875 191.664062 180.886719 191.699219 180.871094 Z M 185.402344 189.878906 C 180.710938 188.164062 175.894531 186.761719 170.992188 185.804688 C 169.628906 185.535156 168.261719 185.308594 166.886719 185.121094 C 166.625 185.082031 166.371094 185.183594 166.292969 185.457031 C 166.226562 185.679688 166.371094 186.015625 166.628906 186.050781 C 171.570312 186.726562 176.4375 187.929688 181.1875 189.449219 C 182.515625 189.875 183.835938 190.328125 185.144531 190.808594 C 185.730469 191.019531 185.980469 190.089844 185.402344 189.878906 Z M 184.355469 193.675781 C 179.574219 192.175781 174.652344 191.097656 169.730469 190.167969 C 168.40625 189.917969 167.078125 189.683594 165.75 189.46875 C 165.140625 189.371094 164.882812 190.300781 165.492188 190.398438 C 170.4375 191.203125 175.359375 192.214844 180.199219 193.492188 C 181.507812 193.835938 182.808594 194.203125 184.097656 194.605469 C 184.691406 194.792969 184.945312 193.863281 184.355469 193.675781 Z M 179.976562 197.902344 C 174.828125 196.25 169.453125 195.332031 164.046875 195.207031 C 163.425781 195.191406 163.425781 196.15625 164.046875 196.171875 C 169.371094 196.296875 174.652344 197.207031 179.722656 198.832031 C 180.316406 199.023438 180.570312 198.089844 179.976562 197.902344 Z M 329.320312 132.398438 C 329.320312 132.398438 329.316406 132.398438 329.316406 132.398438 L 242.949219 132.734375 L 240.242188 129.269531 C 240.078125 129.058594 239.777344 129.019531 239.566406 129.1875 C 239.355469 129.351562 239.320312 129.652344 239.484375 129.863281 L 242.164062 133.292969 L 210.128906 209.816406 C 210.027344 210.0625 210.144531 210.34375 210.390625 210.449219 C 210.449219 210.472656 210.511719 210.484375 210.574219 210.484375 C 210.765625 210.484375 210.941406 210.375 211.019531 210.1875 L 243.039062 133.699219 L 329.320312 133.363281 C 329.585938 133.363281 329.804688 133.144531 329.800781 132.878906 C 329.800781 132.613281 329.585938 132.398438 329.320312 132.398438 Z M 276.339844 175.628906 C 277.425781 175.628906 278.53125 174.894531 279.074219 173.695312 C 279.777344 172.140625 279.261719 170.386719 277.933594 169.785156 C 277.273438 169.488281 276.519531 169.511719 275.808594 169.859375 C 275.132812 170.1875 274.578125 170.777344 274.242188 171.515625 C 273.539062 173.070312 274.054688 174.824219 275.382812 175.425781 C 275.691406 175.566406 276.011719 175.628906 276.339844 175.628906 Z M 275.121094 171.914062 C 275.363281 171.378906 275.757812 170.957031 276.234375 170.726562 C 276.480469 170.605469 276.730469 170.546875 276.972656 170.546875 C 277.167969 170.546875 277.359375 170.585938 277.535156 170.664062 C 278.382812 171.046875 278.675781 172.230469 278.195312 173.300781 C 277.710938 174.371094 276.628906 174.929688 275.78125 174.546875 C 274.933594 174.164062 274.640625 172.984375 275.121094 171.914062 Z M 275.121094 171.914062 " fill-opacity="1" fill-rule="nonzero"/></svg>