<svg xmlns="http://www.w3.org/2000/svg" xmlns:xlink="http://www.w3.org/1999/xlink" width="300" zoomAndPan="magnify" viewBox="0 0 224.87999 374.999991" height="500" preserveAspectRatio="xMidYMid meet" version="1.0"><defs><clipPath id="3a1de4c5ec"><path d="M 5 61 L 221 61 L 221 334.449219 L 5 334.449219 Z M 5 61 " clip-rule="nonzero"/></clipPath><clipPath id="0045725950"><path d="M 25 41 L 224.761719 41 L 224.761719 332 L 25 332 Z M 25 41 " clip-rule="nonzero"/></clipPath></defs><g clip-path="url(#3a1de4c5ec)"><path fill="#242424" d="M 92.914062 156.316406 L 105.09375 154.011719 C 111.457031 158.675781 118.042969 170.691406 118.042969 170.691406 C 118.042969 170.691406 150.304688 180.785156 155.789062 188.46875 C 164.515625 200.683594 176.164062 235.324219 177.480469 274.171875 C 178.796875 313.015625 145.839844 314.664062 145.839844 314.664062 C 145.839844 314.664062 147.09375 334.195312 144.460938 334.195312 C 141.152344 334.195312 43.859375 334.085938 42.871094 333.097656 C 41.886719 332.109375 42.542969 320.367188 42.542969 320.367188 C 42.542969 320.367188 18.621094 325.636719 9.625 299.519531 C 0.0234375 271.652344 10.5 205.84375 19.390625 194.648438 C 28.277344 183.457031 45.175781 178.371094 58.125 173.105469 C 64.050781 161.308594 71.734375 155.710938 71.734375 155.710938 Z M 219.304688 73.582031 C 217.300781 65.480469 208.617188 61.347656 201.410156 61.308594 C 201.410156 61.308594 201.410156 61.308594 201.410156 61.304688 C 201.390625 61.304688 201.367188 61.308594 201.34375 61.308594 C 201.324219 61.308594 201.300781 61.304688 201.277344 61.304688 C 201.277344 61.308594 201.277344 61.308594 201.277344 61.308594 C 194.070312 61.375 185.402344 65.542969 183.433594 73.652344 C 181.449219 81.808594 183.460938 88.578125 189.472656 93.644531 C 194.949219 98.257812 194.417969 100.453125 194.28125 100.808594 C 194.789062 100.625 200.425781 101.332031 201.355469 101.449219 C 201.355469 101.453125 201.355469 101.46875 201.355469 101.46875 C 201.355469 101.46875 201.382812 101.464844 201.421875 101.460938 C 201.464844 101.464844 201.492188 101.46875 201.492188 101.46875 C 201.492188 101.46875 201.492188 101.453125 201.492188 101.449219 C 202.421875 101.328125 208.050781 100.597656 208.5625 100.78125 C 208.421875 100.425781 207.882812 98.234375 213.34375 93.597656 C 219.335938 88.507812 221.320312 81.734375 219.304688 73.582031 Z M 219.304688 73.582031 " fill-opacity="1" fill-rule="nonzero"/></g><path fill="#ffde59" d="M 141.328125 129.789062 C 139.476562 136.617188 140.375 141.496094 140.375 143.445312 C 140.839844 145.640625 133.851562 142.714844 132.21875 134.667969 C 131.347656 142.980469 124.417969 147.5 121.5 148.078125 C 119.390625 148.5 118.421875 145.449219 118.308594 142.886719 C 118.226562 142.871094 115.1875 147.535156 109.921875 149.839844 C 99.746094 154.292969 78.085938 148.710938 78.085938 148.710938 C 75.773438 148.828125 73.589844 145.476562 73.230469 144.75 C 74.269531 147.082031 73.691406 149.992188 73.691406 149.992188 C 64.90625 150.925781 55.445312 141.859375 54.746094 137.105469 C 54.746094 137.105469 53.347656 148.445312 50.554688 145.519531 C 46.359375 138.203125 29.375 116.589844 41.554688 81.585938 C 51.867188 51.957031 80.394531 49.101562 95.554688 49.316406 C 101.421875 49.398438 123.398438 50.453125 133.929688 66.628906 C 150.519531 92.113281 145.863281 113.042969 141.328125 129.789062 Z M 209.726562 105.621094 L 200.097656 103.796875 C 199.976562 103.394531 199.898438 103.226562 199.898438 103.226562 L 193.136719 105.65625 C 193.136719 105.65625 194.441406 119.453125 201.449219 119.464844 C 201.453125 119.464844 201.457031 119.464844 201.457031 119.464844 C 201.460938 119.464844 201.464844 119.464844 201.46875 119.464844 C 208.472656 119.425781 209.726562 105.621094 209.726562 105.621094 Z M 209.726562 105.621094 " fill-opacity="1" fill-rule="nonzero"/><path fill="#ff6347" d="M 175.542969 206.429688 L 205.660156 178.410156 C 206.242188 177.835938 207.226562 178.257812 207.210938 179.078125 L 205.507812 264.75 C 205.503906 264.953125 205.429688 265.148438 205.304688 265.304688 L 172.953125 303.742188 C 172.726562 304.019531 172.355469 304.140625 172.007812 304.050781 L 110.4375 289.371094 C 110.0625 289.269531 109.792969 288.945312 109.761719 288.558594 L 102.875 197.742188 C 102.832031 197.15625 103.347656 196.679688 103.933594 196.773438 L 174.757812 206.683594 C 175.042969 206.730469 175.335938 206.636719 175.542969 206.429688 Z M 211.796875 100.554688 L 191.457031 99.765625 C 191.179688 99.753906 190.957031 99.976562 190.964844 100.253906 L 191.152344 105.582031 C 191.164062 105.835938 191.367188 106.035156 191.617188 106.039062 L 210.871094 106.429688 C 211.101562 106.4375 211.300781 106.273438 211.34375 106.042969 L 212.242188 101.109375 C 212.292969 100.828125 212.082031 100.5625 211.796875 100.554688 Z M 211.796875 100.554688 " fill-opacity="1" fill-rule="nonzero"/><path fill="#fafafa" d="M 132.40625 272.6875 C 139.371094 271.179688 143.570312 272.230469 130.164062 282.074219 C 120.40625 289.238281 103.503906 295.441406 95.027344 298.289062 C 94.558594 294.472656 92.582031 280.917969 87.359375 267.933594 C 89.429688 262.015625 97.253906 261.015625 102.773438 256.511719 C 103.945312 255.550781 105.824219 254.375 107.148438 253.761719 L 107.769531 262.410156 C 115.507812 258.679688 126.109375 251.386719 130.410156 249.625 C 133.582031 248.320312 142.1875 248.289062 134.160156 254.617188 C 143.46875 249.515625 146.515625 255.425781 138.039062 260.746094 C 146.128906 258.386719 142.742188 267.917969 132.40625 272.6875 Z M 116.980469 177.710938 C 114.664062 179.183594 115.714844 182.722656 117.316406 183.796875 C 116.492188 184.117188 115.925781 184.773438 115.671875 185.5625 L 115.664062 185.554688 C 115.664062 185.554688 115.128906 189.65625 116.613281 191.871094 C 117.519531 193.222656 120.894531 193.84375 123.957031 193.476562 C 124.59375 193.398438 127.695312 192.300781 127.480469 190.992188 C 127.769531 191.230469 128.730469 196.949219 129.050781 200.289062 L 152.035156 203.503906 C 150.84375 198.757812 149.453125 193.199219 149.0625 191.597656 C 148.34375 188.640625 143.726562 170.613281 137.234375 165.714844 C 131.917969 161.703125 122.285156 164.492188 118.703125 165.742188 C 115.425781 166.890625 115.039062 171.222656 116.453125 171.484375 C 114.601562 173.003906 114.179688 176.804688 116.980469 177.710938 Z M 69.128906 107.757812 C 69.128906 107.757812 65.835938 103.808594 60.730469 106.933594 C 54.34375 110.847656 59.414062 127.015625 69.320312 124.164062 C 71.953125 131.1875 71.734375 155.710938 71.734375 155.710938 C 71.734375 155.710938 90.609375 176.175781 104.652344 180.566406 C 106.191406 173.984375 105.96875 164.765625 105.53125 157.742188 C 105.53125 148.523438 105.96875 146.109375 105.96875 146.109375 C 105.96875 146.109375 122.046875 147.097656 130.933594 128.332031 C 133.804688 122.277344 134.042969 114.324219 134.554688 107.757812 C 134.554688 96.125 128.796875 77.636719 108.605469 66.660156 C 108.605469 71.929688 89.539062 98.539062 69.128906 107.757812 Z M 69.128906 107.757812 " fill-opacity="1" fill-rule="nonzero"/><g clip-path="url(#0045725950)"><path fill="#333333" d="M 108.605469 130.433594 C 108.054688 130.433594 107.492188 130.390625 106.914062 130.304688 C 102.207031 129.597656 97.742188 126.042969 97.355469 122.699219 C 97.332031 122.511719 97.394531 122.328125 97.523438 122.191406 C 97.652344 122.054688 97.835938 121.988281 98.023438 121.996094 C 104.585938 122.4375 116.988281 123.3125 116.988281 123.3125 C 117.191406 123.328125 117.378906 123.441406 117.484375 123.617188 C 117.589844 123.792969 117.605469 124.007812 117.523438 124.199219 C 115.75 128.226562 112.554688 130.433594 108.605469 130.433594 Z M 98.789062 123.3125 C 99.632812 125.6875 103.035156 128.445312 107.101562 129.058594 C 109.394531 129.402344 113.484375 129.230469 115.972656 124.507812 C 113.125 124.304688 104.359375 123.6875 98.789062 123.3125 Z M 134.566406 253.378906 C 129.800781 256.488281 124.96875 259.433594 119.984375 262.175781 C 118.019531 263.257812 116.046875 264.324219 114.074219 265.394531 C 113.359375 265.78125 113.996094 266.875 114.710938 266.484375 C 120.117188 263.550781 125.535156 260.640625 130.734375 257.351562 C 132.234375 256.402344 133.71875 255.4375 135.203125 254.46875 C 135.882812 254.027344 135.25 252.933594 134.566406 253.378906 Z M 138.023438 260.128906 C 132.800781 263.359375 127.585938 266.609375 122.207031 269.570312 C 120.570312 270.472656 118.921875 271.347656 117.265625 272.210938 C 116.542969 272.582031 117.179688 273.671875 117.902344 273.300781 C 123.359375 270.464844 128.667969 267.378906 133.90625 264.15625 C 135.492188 263.179688 137.078125 262.199219 138.660156 261.21875 C 139.351562 260.792969 138.71875 259.699219 138.023438 260.128906 Z M 132.425781 271.894531 C 127.570312 274.96875 122.53125 277.699219 117.449219 280.375 C 116.730469 280.753906 117.367188 281.84375 118.085938 281.464844 C 123.167969 278.789062 128.207031 276.058594 133.0625 272.984375 C 133.746094 272.550781 133.113281 271.460938 132.425781 271.894531 Z M 108.476562 260.785156 C 106.710938 261.6875 104.9375 262.582031 103.152344 263.449219 C 102.644531 263.695312 102.132812 263.941406 101.621094 264.179688 C 101.472656 264.25 101.324219 264.316406 101.175781 264.382812 C 100.992188 264.464844 101.273438 264.351562 101.15625 264.390625 C 101.125 264.402344 101.089844 264.414062 101.058594 264.425781 C 100.285156 264.667969 100.613281 265.886719 101.390625 265.644531 C 102.191406 265.394531 102.964844 264.9375 103.710938 264.574219 C 105.523438 263.695312 107.320312 262.789062 109.113281 261.875 C 109.839844 261.507812 109.199219 260.417969 108.476562 260.785156 Z M 174.125 206.683594 C 174.214844 208.183594 174.214844 209.6875 174.21875 211.191406 C 174.230469 213.71875 174.210938 216.246094 174.183594 218.773438 C 174.152344 222.082031 174.101562 225.390625 174.046875 228.699219 C 173.980469 232.527344 173.910156 236.355469 173.832031 240.183594 C 173.746094 244.328125 173.65625 248.472656 173.5625 252.617188 C 173.46875 256.820312 173.367188 261.019531 173.265625 265.222656 C 173.171875 269.234375 173.070312 273.25 172.972656 277.265625 C 172.882812 280.851562 172.792969 284.4375 172.703125 288.023438 C 172.628906 290.941406 172.554688 293.855469 172.484375 296.769531 C 172.433594 298.765625 172.382812 300.761719 172.339844 302.761719 C 172.332031 303.085938 172.328125 303.414062 172.320312 303.742188 C 172.304688 304.554688 173.566406 304.554688 173.582031 303.742188 C 173.617188 301.996094 173.660156 300.25 173.703125 298.503906 C 173.769531 295.785156 173.835938 293.066406 173.90625 290.351562 C 173.992188 286.902344 174.078125 283.457031 174.164062 280.011719 C 174.261719 276.097656 174.359375 272.183594 174.457031 268.269531 C 174.558594 264.089844 174.65625 259.914062 174.753906 255.738281 C 174.847656 251.554688 174.941406 247.375 175.03125 243.195312 C 175.113281 239.253906 175.191406 235.308594 175.261719 231.367188 C 175.324219 227.90625 175.378906 224.445312 175.421875 220.984375 C 175.453125 218.246094 175.480469 215.507812 175.484375 212.769531 C 175.484375 211.003906 175.488281 209.234375 175.425781 207.46875 C 175.414062 207.207031 175.402344 206.945312 175.386719 206.683594 C 175.339844 205.875 174.074219 205.871094 174.125 206.683594 Z M 84.289062 303.785156 C 83.347656 303.785156 82.316406 303.308594 82.105469 302.433594 C 81.941406 301.757812 82.214844 300.769531 84.457031 299.917969 C 85.816406 299.398438 86.835938 299.429688 87.492188 300.011719 C 88.105469 300.550781 88.167969 301.394531 88.019531 302 C 87.878906 302.582031 87.550781 302.992188 87.140625 303.09375 C 86.800781 303.183594 86.460938 302.972656 86.375 302.636719 C 86.300781 302.339844 86.449219 302.035156 86.71875 301.910156 C 86.816406 301.753906 86.902344 301.292969 86.722656 301.03125 C 86.507812 300.722656 85.828125 300.746094 84.90625 301.097656 C 83.523438 301.621094 83.316406 302.070312 83.332031 302.136719 C 83.363281 302.277344 83.84375 302.582031 84.449219 302.511719 C 84.792969 302.476562 85.105469 302.722656 85.144531 303.070312 C 85.183594 303.417969 84.933594 303.730469 84.585938 303.765625 C 84.488281 303.777344 84.390625 303.785156 84.289062 303.785156 Z M 86.832031 301.871094 Z M 67.808594 309.414062 C 67.253906 309.414062 66.796875 309.273438 66.460938 308.996094 C 66.03125 308.644531 65.847656 308.101562 65.957031 307.507812 C 66.195312 306.214844 67.714844 304.914062 69.828125 304.199219 C 71.511719 303.625 72.648438 303.628906 73.296875 304.203125 C 73.710938 304.566406 73.863281 305.117188 73.734375 305.746094 C 73.550781 306.625 72.855469 307.496094 72.148438 307.726562 C 71.816406 307.835938 71.460938 307.65625 71.355469 307.324219 C 71.246094 306.992188 71.425781 306.636719 71.757812 306.527344 C 71.980469 306.457031 72.398438 305.976562 72.496094 305.492188 C 72.515625 305.414062 72.542969 305.21875 72.460938 305.148438 C 72.308594 305.011719 71.664062 304.910156 70.234375 305.390625 C 68.324219 306.039062 67.320312 307.058594 67.199219 307.734375 C 67.160156 307.9375 67.230469 307.996094 67.261719 308.023438 C 67.441406 308.171875 68.082031 308.289062 69.332031 307.800781 C 69.65625 307.671875 70.019531 307.835938 70.148438 308.15625 C 70.277344 308.480469 70.117188 308.847656 69.792969 308.976562 C 69.050781 309.269531 68.378906 309.414062 67.808594 309.414062 Z M 145.84375 315.292969 C 145.796875 315.292969 145.753906 315.289062 145.707031 315.28125 C 145.566406 315.25 131.496094 312.027344 129.15625 294.996094 C 129.109375 294.652344 129.351562 294.332031 129.699219 294.285156 C 130.035156 294.234375 130.359375 294.480469 130.410156 294.824219 C 132.625 310.988281 145.839844 314.015625 145.972656 314.046875 C 146.3125 314.121094 146.53125 314.457031 146.457031 314.796875 C 146.394531 315.09375 146.132812 315.292969 145.84375 315.292969 Z M 117.796875 184.65625 C 121.433594 183.871094 125.144531 183.546875 128.859375 183.683594 C 129.671875 183.710938 129.671875 182.449219 128.859375 182.421875 C 125.03125 182.28125 121.203125 182.628906 117.460938 183.4375 C 116.667969 183.609375 117.003906 184.828125 117.796875 184.65625 Z M 117.222656 178.191406 C 119.351562 177.445312 121.644531 177.164062 123.878906 176.925781 C 126.035156 176.699219 128.199219 176.566406 130.363281 176.40625 C 131.167969 176.347656 131.175781 175.082031 130.363281 175.144531 C 128.148438 175.308594 125.929688 175.441406 123.722656 175.679688 C 121.433594 175.929688 119.070312 176.207031 116.886719 176.972656 C 116.125 177.242188 116.453125 178.460938 117.222656 178.191406 Z M 116.839844 171.949219 C 118.570312 171.394531 120.445312 171.171875 122.234375 170.902344 C 124.460938 170.570312 126.703125 170.285156 128.945312 170.101562 C 129.722656 170.039062 130.523438 169.957031 131.304688 170.023438 C 132.113281 170.089844 132.109375 168.828125 131.304688 168.761719 C 129.613281 168.617188 127.820312 168.929688 126.144531 169.121094 C 123.800781 169.394531 121.453125 169.71875 119.128906 170.140625 C 118.25 170.300781 117.355469 170.460938 116.503906 170.734375 C 115.734375 170.980469 116.0625 172.199219 116.839844 171.949219 Z M 124.160156 191.648438 C 122.355469 191.648438 120.347656 191.621094 119.589844 191.503906 C 119.246094 191.453125 119.011719 191.128906 119.0625 190.785156 C 119.117188 190.441406 119.4375 190.207031 119.785156 190.257812 C 120.910156 190.429688 125.714844 190.390625 127.46875 190.359375 C 127.84375 190.363281 128.105469 190.632812 128.109375 190.980469 C 128.117188 191.328125 127.835938 191.617188 127.488281 191.621094 C 127.363281 191.625 125.851562 191.648438 124.160156 191.648438 Z M 119.777344 94.832031 C 121.691406 94.59375 123.601562 95.3125 124.863281 96.777344 C 125.085938 97.035156 125.527344 97.003906 125.757812 96.777344 C 126.011719 96.519531 125.980469 96.140625 125.757812 95.882812 C 124.304688 94.199219 121.984375 93.292969 119.777344 93.570312 C 119.4375 93.613281 119.144531 93.832031 119.144531 94.203125 C 119.144531 94.511719 119.433594 94.875 119.777344 94.832031 Z M 123.992188 107.382812 C 123.992188 109.269531 123 110.800781 121.769531 110.800781 C 120.542969 110.800781 119.550781 109.269531 119.550781 107.382812 C 119.550781 105.496094 120.542969 103.96875 121.769531 103.96875 C 123 103.96875 123.992188 105.496094 123.992188 107.382812 Z M 100.539062 93.570312 C 98.332031 93.292969 96.011719 94.199219 94.558594 95.882812 C 94.335938 96.140625 94.304688 96.523438 94.558594 96.777344 C 94.785156 97.003906 95.226562 97.035156 95.453125 96.777344 C 96.714844 95.3125 98.625 94.59375 100.539062 94.835938 C 100.878906 94.875 101.171875 94.511719 101.171875 94.203125 C 101.171875 93.828125 100.878906 93.613281 100.539062 93.570312 Z M 96.320312 107.382812 C 96.320312 109.269531 97.316406 110.800781 98.542969 110.800781 C 99.773438 110.800781 100.765625 109.269531 100.765625 107.382812 C 100.765625 105.496094 99.773438 103.96875 98.542969 103.96875 C 97.316406 103.96875 96.320312 105.496094 96.320312 107.382812 Z M 112.664062 111.84375 C 112.398438 111.84375 112.152344 111.675781 112.066406 111.410156 C 109.554688 103.714844 112.445312 96.003906 112.570312 95.679688 C 112.695312 95.355469 113.058594 95.195312 113.382812 95.316406 C 113.710938 95.441406 113.871094 95.804688 113.746094 96.132812 C 113.71875 96.207031 110.898438 103.757812 113.265625 111.019531 C 113.371094 111.347656 113.191406 111.707031 112.859375 111.8125 C 112.796875 111.835938 112.730469 111.84375 112.664062 111.84375 Z M 67.398438 119.910156 C 67.285156 119.910156 67.167969 119.878906 67.0625 119.816406 C 66.144531 119.238281 65.640625 118.425781 65.710938 117.636719 C 65.765625 117.03125 66.160156 116.53125 66.757812 116.292969 C 67.132812 116.144531 67.953125 115.96875 69.160156 116.507812 C 66.417969 111.652344 62.292969 111.359375 62.097656 111.351562 C 61.75 111.332031 61.484375 111.035156 61.503906 110.6875 C 61.519531 110.339844 61.804688 110.074219 62.164062 110.089844 C 62.414062 110.101562 68.367188 110.476562 71.28125 118.070312 C 71.382812 118.34375 71.289062 118.652344 71.050781 118.816406 C 70.808594 118.980469 70.488281 118.960938 70.269531 118.769531 C 68.832031 117.488281 67.726562 117.265625 67.21875 117.46875 C 67.066406 117.527344 66.980469 117.625 66.96875 117.75 C 66.949219 117.976562 67.136719 118.371094 67.734375 118.742188 C 68.027344 118.929688 68.117188 119.316406 67.933594 119.613281 C 67.8125 119.804688 67.609375 119.910156 67.398438 119.910156 Z M 59.089844 107.207031 C 58.84375 107.257812 58.582031 107.160156 58.4375 106.941406 C 58.320312 106.765625 46.828125 89.097656 58.039062 69.027344 C 58.207031 68.722656 58.589844 68.613281 58.894531 68.785156 C 59.199219 68.953125 59.308594 69.339844 59.140625 69.640625 C 48.3125 89.023438 59.375 106.070312 59.488281 106.242188 C 59.679688 106.53125 59.601562 106.921875 59.308594 107.117188 C 59.242188 107.164062 59.167969 107.191406 59.089844 107.207031 Z M 67.234375 103.78125 C 67.027344 103.78125 66.824219 103.675781 66.703125 103.492188 C 66.515625 103.199219 66.597656 102.808594 66.890625 102.617188 C 73.449219 98.386719 79.648438 83.363281 79.707031 83.210938 C 79.839844 82.890625 80.207031 82.734375 80.53125 82.867188 C 80.855469 83 81.007812 83.367188 80.875 83.691406 C 80.617188 84.324219 74.46875 99.234375 67.574219 103.679688 C 67.46875 103.746094 67.351562 103.78125 67.234375 103.78125 Z M 135.214844 106.414062 C 135.15625 106.414062 135.097656 106.40625 135.039062 106.386719 C 134.703125 106.289062 134.511719 105.941406 134.609375 105.605469 C 134.679688 105.355469 141.699219 80.460938 125.25 65.925781 C 124.988281 65.695312 124.964844 65.296875 125.195312 65.035156 C 125.425781 64.773438 125.824219 64.753906 126.085938 64.980469 C 143.144531 80.050781 135.894531 105.703125 135.820312 105.960938 C 135.738281 106.234375 135.488281 106.414062 135.214844 106.414062 Z M 91.925781 199.960938 C 91.730469 199.960938 91.546875 199.875 91.429688 199.722656 C 78.699219 183.539062 60.171875 171.78125 59.984375 171.664062 C 59.691406 171.476562 59.601562 171.089844 59.785156 170.792969 C 59.972656 170.5 60.363281 170.410156 60.65625 170.59375 C 60.839844 170.710938 79.054688 182.269531 91.902344 198.289062 C 95.207031 193.730469 103.941406 181.855469 104.035156 181.730469 C 104.144531 181.578125 104.316406 181.484375 104.503906 181.472656 C 104.691406 181.457031 104.871094 181.53125 105 181.667969 C 105.257812 181.9375 110.925781 187.902344 113.875 192.984375 C 114.351562 191.648438 114.832031 190.121094 114.832031 189.566406 C 114.832031 189.214844 115.113281 188.933594 115.460938 188.933594 C 115.8125 188.933594 116.09375 189.214844 116.09375 189.566406 C 116.09375 190.800781 114.722656 194.332031 114.566406 194.734375 C 114.476562 194.964844 114.257812 195.121094 114.007812 195.132812 C 113.746094 195.160156 113.527344 195.007812 113.417969 194.785156 C 111.273438 190.5 106.226562 184.855469 104.601562 183.089844 C 102.648438 185.75 94.902344 196.285156 92.4375 199.703125 C 92.320312 199.863281 92.136719 199.957031 91.9375 199.960938 C 91.933594 199.960938 91.929688 199.960938 91.925781 199.960938 Z M 104.761719 196.78125 C 104.417969 196.78125 104.136719 196.503906 104.132812 196.160156 L 103.914062 182.113281 C 103.90625 181.765625 104.1875 181.476562 104.535156 181.472656 C 104.894531 181.460938 105.171875 181.746094 105.175781 182.09375 L 105.394531 196.140625 C 105.398438 196.488281 105.121094 196.773438 104.773438 196.78125 C 104.769531 196.78125 104.765625 196.78125 104.761719 196.78125 Z M 111.347656 331.316406 C 111.289062 331.316406 111.230469 331.308594 111.175781 331.289062 C 110.839844 331.195312 110.644531 330.847656 110.742188 330.511719 C 111.207031 328.882812 111.179688 306.953125 111.046875 292.613281 C 111.042969 292.261719 111.324219 291.976562 111.671875 291.976562 C 111.671875 291.976562 111.675781 291.976562 111.675781 291.976562 C 112.023438 291.976562 112.304688 292.253906 112.308594 292.601562 C 112.339844 296.269531 112.617188 328.53125 111.953125 330.855469 C 111.875 331.132812 111.621094 331.316406 111.347656 331.316406 Z M 152.277344 200.941406 C 152.277344 200.941406 152.273438 200.941406 152.269531 200.941406 C 151.925781 200.9375 151.648438 200.664062 151.648438 200.320312 C 151.648438 199.410156 153.855469 190.34375 154.300781 188.535156 C 154.382812 188.199219 154.726562 187.996094 155.0625 188.074219 C 155.402344 188.15625 155.609375 188.5 155.523438 188.835938 C 154.523438 192.925781 152.929688 199.65625 152.910156 200.324219 C 152.898438 200.664062 152.621094 200.941406 152.277344 200.941406 Z M 105.429688 147.152344 C 103.875 147.152344 90.597656 146.769531 79.195312 134.273438 C 78.960938 134.015625 78.980469 133.617188 79.238281 133.378906 C 79.492188 133.148438 79.894531 133.164062 80.128906 133.421875 C 91.808594 146.222656 105.40625 145.902344 105.535156 145.890625 C 105.890625 145.863281 106.175781 146.152344 106.191406 146.5 C 106.203125 146.847656 105.929688 147.140625 105.582031 147.152344 C 105.574219 147.152344 105.523438 147.152344 105.429688 147.152344 Z M 176.394531 52.90625 C 176.945312 53.625 177.527344 54.320312 178.105469 55.015625 C 178.402344 55.371094 178.699219 55.730469 178.996094 56.089844 C 179.125 56.25 179.253906 56.40625 179.382812 56.566406 C 179.441406 56.636719 179.5 56.710938 179.554688 56.78125 C 179.601562 56.839844 179.820312 57.121094 179.628906 56.871094 C 179.765625 57.050781 179.898438 57.195312 180.128906 57.257812 C 180.332031 57.3125 180.597656 57.289062 180.777344 57.171875 C 181.121094 56.949219 181.367188 56.394531 181.078125 56.019531 C 180.527344 55.304688 179.949219 54.609375 179.371094 53.914062 C 179.070312 53.554688 178.773438 53.199219 178.476562 52.835938 C 178.347656 52.679688 178.21875 52.519531 178.089844 52.363281 C 178.03125 52.289062 177.976562 52.21875 177.917969 52.144531 C 177.875 52.089844 177.65625 51.808594 177.847656 52.058594 C 177.707031 51.875 177.574219 51.734375 177.34375 51.671875 C 177.144531 51.617188 176.875 51.640625 176.695312 51.757812 C 176.351562 51.976562 176.109375 52.535156 176.394531 52.90625 Z M 199.945312 41.882812 C 199.949219 44.738281 199.953125 47.589844 199.960938 50.441406 C 199.960938 51.523438 201.644531 51.527344 201.644531 50.441406 C 201.636719 47.589844 201.632812 44.738281 201.625 41.882812 C 201.625 40.800781 199.941406 40.796875 199.945312 41.882812 Z M 223.175781 53.300781 C 222.078125 54.835938 220.984375 56.375 219.886719 57.910156 C 219.628906 58.269531 219.8125 58.863281 220.1875 59.0625 C 220.621094 59.292969 221.066406 59.144531 221.339844 58.761719 C 222.4375 57.222656 223.53125 55.6875 224.628906 54.148438 C 224.882812 53.789062 224.703125 53.199219 224.328125 53 C 223.894531 52.769531 223.449219 52.917969 223.175781 53.300781 Z M 201.027344 99.199219 C 201.101562 96.273438 200.90625 93.363281 200.570312 90.457031 C 200.3125 88.246094 200.011719 85.855469 198.601562 84.042969 C 197.464844 82.585938 195.074219 81.132812 193.800781 83.257812 C 192.800781 84.925781 193.726562 87.261719 194.867188 88.613281 C 195.996094 89.953125 197.628906 90.660156 199.355469 90.777344 C 200.441406 90.847656 201.542969 90.703125 202.609375 90.484375 C 203.777344 90.25 204.976562 89.984375 205.945312 89.257812 C 207.726562 87.925781 208.832031 85.4375 208.429688 83.210938 C 208.246094 82.210938 207.484375 81.214844 206.378906 81.304688 C 205.597656 81.367188 204.910156 81.859375 204.421875 82.445312 C 203.589844 83.441406 203.152344 84.699219 202.882812 85.953125 C 202.570312 87.402344 202.433594 88.894531 202.390625 90.378906 C 202.296875 93.433594 202.589844 96.480469 202.730469 99.527344 C 202.765625 100.335938 204.027344 100.339844 203.992188 99.527344 C 203.789062 95.050781 203.117188 90.367188 204.175781 85.953125 C 204.394531 85.035156 204.710938 84.078125 205.3125 83.335938 C 205.585938 83 206.128906 82.476562 206.5625 82.558594 C 207.4375 82.71875 207.261719 84.355469 207.15625 84.957031 C 206.992188 85.878906 206.601562 86.773438 205.992188 87.492188 C 205.425781 88.164062 204.730469 88.636719 203.878906 88.878906 C 202.847656 89.167969 201.789062 89.414062 200.71875 89.5 C 199.257812 89.613281 197.773438 89.429688 196.582031 88.515625 C 195.457031 87.648438 194.5625 86.136719 194.664062 84.679688 C 194.703125 84.09375 195.0625 83.269531 195.769531 83.441406 C 196.492188 83.613281 197.164062 84.242188 197.609375 84.808594 C 198.933594 86.5 199.132812 88.886719 199.363281 90.945312 C 199.664062 93.6875 199.835938 96.4375 199.765625 99.199219 C 199.746094 100.011719 201.007812 100.011719 201.027344 99.199219 Z M 86.644531 267.015625 C 86.511719 266.855469 86.304688 266.773438 86.09375 266.796875 C 77.207031 267.773438 65.417969 269.203125 55.109375 270.488281 C 54.726562 267.1875 54.355469 263.886719 53.960938 260.589844 C 57.828125 242.335938 57.226562 220.925781 57.21875 220.710938 C 57.210938 220.363281 56.914062 220.09375 56.570312 220.097656 C 56.222656 220.109375 55.949219 220.402344 55.960938 220.75 C 55.964844 220.949219 56.480469 239.390625 53.457031 256.542969 C 52.824219 251.597656 52.132812 246.664062 51.34375 241.742188 C 50.292969 235.199219 49.085938 228.675781 47.554688 222.222656 C 46.1875 216.46875 44.59375 210.714844 42.273438 205.261719 C 41.371094 203.140625 40.347656 201.054688 39.050781 199.144531 C 38.019531 197.628906 36.808594 196.179688 35.269531 195.160156 C 34.960938 194.957031 34.636719 194.773438 34.304688 194.617188 C 33.570312 194.273438 32.929688 195.363281 33.664062 195.707031 C 35.144531 196.398438 36.273438 197.53125 37.277344 198.832031 C 38.574219 200.507812 39.632812 202.492188 40.539062 204.445312 C 42.914062 209.582031 44.488281 215.097656 45.855469 220.578125 C 47.445312 226.960938 48.691406 233.425781 49.769531 239.910156 C 50.761719 245.855469 51.605469 251.828125 52.359375 257.804688 C 52.472656 258.710938 52.574219 259.617188 52.683594 260.523438 C 52.683594 260.527344 52.683594 260.535156 52.679688 260.539062 C 52.652344 260.679688 52.679688 260.8125 52.734375 260.929688 C 53.105469 264.046875 53.464844 267.164062 53.820312 270.28125 C 53.835938 270.402344 53.851562 270.523438 53.863281 270.644531 C 41.832031 272.148438 32.109375 273.410156 31.929688 273.433594 C 31.582031 273.480469 31.339844 273.796875 31.382812 274.140625 C 31.429688 274.488281 31.742188 274.726562 32.089844 274.6875 C 32.429688 274.640625 66.101562 270.269531 85.886719 268.085938 C 89.664062 273.046875 94.808594 292.980469 93.949219 302.234375 C 91.71875 304.429688 61.296875 314.101562 42.363281 319.765625 C 42.027344 319.863281 41.839844 320.214844 41.9375 320.550781 C 42.019531 320.824219 42.273438 321 42.542969 321 C 42.605469 321 42.664062 320.992188 42.726562 320.972656 C 51.15625 318.453125 93.304688 305.722656 95.097656 302.8125 C 95.144531 302.730469 95.175781 302.640625 95.1875 302.546875 C 96.199219 292.769531 90.683594 271.792969 86.644531 267.015625 Z M 46.492188 266.242188 C 46.738281 266.242188 46.972656 266.097656 47.074219 265.859375 C 47.210938 265.539062 47.0625 265.167969 46.742188 265.03125 C 46.46875 264.914062 39.910156 262.179688 26.308594 260.867188 C 25.96875 260.824219 25.652344 261.085938 25.621094 261.433594 C 25.585938 261.78125 25.839844 262.089844 26.1875 262.125 C 39.570312 263.414062 46.183594 266.164062 46.246094 266.191406 C 46.328125 266.226562 46.410156 266.242188 46.492188 266.242188 Z M 46.492188 266.242188 " fill-opacity="1" fill-rule="nonzero"/></g></svg>