<svg id="icons" xmlns="http://www.w3.org/2000/svg" viewBox="0 0 340 340"><rect x="15.491" y="63.196" width="309.019" height="213.608" rx="17.326" style="fill:#ff6b7a"/><path d="M307.184,63.2H32.817A17.326,17.326,0,0,0,15.491,80.522V98.483H324.51V80.522A17.326,17.326,0,0,0,307.184,63.2Z" style="fill:#333333"/><rect x="52.218" y="126.813" width="94.356" height="116.839" style="fill:#fff"/><path d="M127.257,214.891c-1.036-11.236-7.268-21.533-19.307-24.415,24.313-9.561,17.946-45.812-8.554-46.145-26.5.335-32.864,36.588-8.554,46.145-12.036,2.879-18.272,13.182-19.307,24.415L69.4,243.652h60Z" style="fill:#ffd071"/><path d="M292.505,222.467H264.937c-5.249-.087-5.264-7.91,0-8h27.568C297.754,214.554,297.769,222.377,292.505,222.467Z" style="fill:#333333"/><path d="M237.37,222.467H176.431c-5.238-.084-5.272-7.909,0-8H237.37C242.609,214.551,242.643,222.376,237.37,222.467Z" style="fill:#333333"/><path d="M292.505,197.992H176.431c-5.219-.078-5.289-7.908,0-8H292.505C297.724,190.07,297.794,197.9,292.505,197.992Z" style="fill:#333333"/><path d="M292.505,174.114H176.431c-5.219-.078-5.289-7.907,0-8H292.505C297.724,166.192,297.794,174.021,292.505,174.114Z" style="fill:#333333"/><path d="M292.505,150.237H201.387c-5.228-.08-5.281-7.908,0-8h91.117C297.733,142.318,297.786,150.145,292.505,150.237Z" style="fill:#333333"/><path d="M307.183,280.8H32.817A21.351,21.351,0,0,1,11.49,259.478V80.522A21.351,21.351,0,0,1,32.817,59.2H307.183A21.351,21.351,0,0,1,328.51,80.522V259.478A21.351,21.351,0,0,1,307.183,280.8ZM32.817,67.2A13.342,13.342,0,0,0,19.49,80.522V259.478A13.342,13.342,0,0,0,32.817,272.8H307.183a13.342,13.342,0,0,0,13.327-13.326V80.522A13.342,13.342,0,0,0,307.183,67.2Z" style="fill:#242424"/><path d="M306.376,102.483H15.49c-5.149-.091-5.379-7.849,0-8H306.376C311.525,94.574,311.755,102.331,306.376,102.483Z" style="fill:#333333"/><path d="M324.51,102.483a4,4,0,0,1-4-4V80.522A13.342,13.342,0,0,0,307.183,67.2H32.817A13.342,13.342,0,0,0,19.49,80.522V98.483c-.064,5.232-7.9,5.292-8,0V80.522A21.351,21.351,0,0,1,32.817,59.2H307.183A21.351,21.351,0,0,1,328.51,80.522V98.483A4,4,0,0,1,324.51,102.483Z" style="fill:#242424"/><path d="M146.574,247.652H129.4c-5.257-.09-5.259-7.911,0-8h13.178V130.813H56.219V239.652h54a4,4,0,0,1,0,8h-58a4,4,0,0,1-4-4V126.813a4,4,0,0,1,4-4h94.355a4,4,0,0,1,4,4V243.652A4,4,0,0,1,146.574,247.652Z" style="fill:#242424"/><path d="M69.4,247.652a4.006,4.006,0,0,1-3.994-4.3l2.139-28.76c.7-10.086,5.94-19.568,14.3-24.782-20.186-16.246-8.511-49.562,17.554-49.482,26.063-.08,37.74,33.241,17.552,49.482,8.355,5.215,13.6,14.7,14.3,24.781l2.138,28.761c.3,5.226-7.484,5.851-7.978.593l-2.137-28.76a24.9,24.9,0,0,0-5.294-13.855,18.686,18.686,0,0,0-10.844-6.941,4.017,4.017,0,0,1-.615-7.649,19.866,19.866,0,0,0-7.12-38.412c-21.944.292-27.444,30.277-7.119,38.412a4.017,4.017,0,0,1-.615,7.649c-9.21,1.866-15.574,11.34-16.137,20.8l-2.139,28.761A4,4,0,0,1,69.4,247.652Z" style="fill:#242424"/></svg>